<svg xmlns="http://www.w3.org/2000/svg" xmlns:xlink="http://www.w3.org/1999/xlink" width="187" zoomAndPan="magnify" viewBox="0 0 140.25 30.000001" height="40" preserveAspectRatio="xMidYMid meet" version="1.0"><defs><g/><clipPath id="94fb23f02b"><path d="M 22.308594 1.777344 L 46.261719 1.777344 L 46.261719 27.183594 L 22.308594 27.183594 Z M 22.308594 1.777344 " clip-rule="nonzero"/></clipPath><clipPath id="4193aa4e9d"><path d="M 36.25 13.644531 L 25.417969 13.644531 C 25 13.644531 24.695312 13.246094 24.808594 12.839844 L 27.78125 2.242188 C 27.859375 1.96875 28.109375 1.777344 28.394531 1.777344 L 39.226562 1.777344 C 39.644531 1.777344 39.949219 2.179688 39.835938 2.582031 L 36.863281 13.183594 C 36.785156 13.457031 36.535156 13.644531 36.25 13.644531 Z M 29.214844 21.644531 L 30.746094 16.1875 C 30.859375 15.785156 30.554688 15.382812 30.136719 15.382812 L 24.566406 15.382812 C 24.285156 15.382812 24.035156 15.570312 23.957031 15.84375 L 22.425781 21.300781 C 22.3125 21.707031 22.617188 22.109375 23.035156 22.109375 L 28.605469 22.109375 C 28.890625 22.109375 29.140625 21.917969 29.214844 21.644531 Z M 32.035156 15.84375 L 29.058594 26.445312 C 28.945312 26.847656 29.25 27.25 29.671875 27.25 L 40.503906 27.25 C 40.785156 27.25 41.035156 27.058594 41.113281 26.785156 L 44.085938 16.1875 C 44.199219 15.785156 43.898438 15.382812 43.476562 15.382812 L 32.644531 15.382812 C 32.359375 15.382812 32.109375 15.570312 32.035156 15.84375 Z M 39.679688 7.382812 L 38.148438 12.839844 C 38.035156 13.246094 38.339844 13.644531 38.757812 13.644531 L 44.328125 13.644531 C 44.613281 13.644531 44.863281 13.457031 44.9375 13.183594 L 46.46875 7.726562 C 46.582031 7.320312 46.277344 6.917969 45.859375 6.917969 L 40.289062 6.917969 C 40.007812 6.917969 39.757812 7.109375 39.679688 7.382812 Z M 39.679688 7.382812 " clip-rule="nonzero"/></clipPath><linearGradient x1="114.296457" gradientTransform="matrix(0.0509425, 0, 0, 0.0509425, 22.401831, 1.778432)" y1="-47.633933" x2="357.243162" gradientUnits="userSpaceOnUse" y2="544.27502" id="0bfc759211"><stop stop-opacity="1" stop-color="rgb(16.499329%, 28.199768%, 63.899231%)" offset="0"/><stop stop-opacity="1" stop-color="rgb(16.499329%, 28.199768%, 63.899231%)" offset="0.0625"/><stop stop-opacity="1" stop-color="rgb(16.485596%, 28.179932%, 63.865662%)" offset="0.09375"/><stop stop-opacity="1" stop-color="rgb(16.426086%, 28.100586%, 63.726807%)" offset="0.101562"/><stop stop-opacity="1" stop-color="rgb(16.334534%, 27.97699%, 63.513184%)" offset="0.109375"/><stop stop-opacity="1" stop-color="rgb(16.242981%, 27.854919%, 63.299561%)" offset="0.117187"/><stop stop-opacity="1" stop-color="rgb(16.151428%, 27.732849%, 63.085938%)" offset="0.125"/><stop stop-opacity="1" stop-color="rgb(16.061401%, 27.609253%, 62.872314%)" offset="0.132812"/><stop stop-opacity="1" stop-color="rgb(15.969849%, 27.487183%, 62.658691%)" offset="0.140625"/><stop stop-opacity="1" stop-color="rgb(15.878296%, 27.365112%, 62.443542%)" offset="0.148437"/><stop stop-opacity="1" stop-color="rgb(15.786743%, 27.241516%, 62.229919%)" offset="0.15625"/><stop stop-opacity="1" stop-color="rgb(15.696716%, 27.119446%, 62.016296%)" offset="0.164062"/><stop stop-opacity="1" stop-color="rgb(15.605164%, 26.997375%, 61.802673%)" offset="0.171875"/><stop stop-opacity="1" stop-color="rgb(15.513611%, 26.873779%, 61.58905%)" offset="0.179687"/><stop stop-opacity="1" stop-color="rgb(15.422058%, 26.751709%, 61.375427%)" offset="0.1875"/><stop stop-opacity="1" stop-color="rgb(15.332031%, 26.628113%, 61.161804%)" offset="0.195312"/><stop stop-opacity="1" stop-color="rgb(15.240479%, 26.506042%, 60.948181%)" offset="0.203125"/><stop stop-opacity="1" stop-color="rgb(15.148926%, 26.383972%, 60.733032%)" offset="0.210937"/><stop stop-opacity="1" stop-color="rgb(15.057373%, 26.260376%, 60.519409%)" offset="0.21875"/><stop stop-opacity="1" stop-color="rgb(14.967346%, 26.138306%, 60.305786%)" offset="0.226562"/><stop stop-opacity="1" stop-color="rgb(14.875793%, 26.016235%, 60.092163%)" offset="0.234375"/><stop stop-opacity="1" stop-color="rgb(14.784241%, 25.892639%, 59.87854%)" offset="0.242187"/><stop stop-opacity="1" stop-color="rgb(14.692688%, 25.770569%, 59.664917%)" offset="0.25"/><stop stop-opacity="1" stop-color="rgb(14.602661%, 25.648499%, 59.451294%)" offset="0.257812"/><stop stop-opacity="1" stop-color="rgb(14.511108%, 25.524902%, 59.237671%)" offset="0.265625"/><stop stop-opacity="1" stop-color="rgb(14.419556%, 25.402832%, 59.024048%)" offset="0.273437"/><stop stop-opacity="1" stop-color="rgb(14.328003%, 25.279236%, 58.808899%)" offset="0.278997"/><stop stop-opacity="1" stop-color="rgb(14.283752%, 25.218201%, 58.702087%)" offset="0.28125"/><stop stop-opacity="1" stop-color="rgb(14.237976%, 25.157166%, 58.595276%)" offset="0.289062"/><stop stop-opacity="1" stop-color="rgb(14.146423%, 25.035095%, 58.381653%)" offset="0.296875"/><stop stop-opacity="1" stop-color="rgb(14.054871%, 24.911499%, 58.16803%)" offset="0.304688"/><stop stop-opacity="1" stop-color="rgb(13.963318%, 24.789429%, 57.954407%)" offset="0.3125"/><stop stop-opacity="1" stop-color="rgb(13.873291%, 24.667358%, 57.740784%)" offset="0.320312"/><stop stop-opacity="1" stop-color="rgb(13.781738%, 24.543762%, 57.527161%)" offset="0.328125"/><stop stop-opacity="1" stop-color="rgb(13.690186%, 24.421692%, 57.313538%)" offset="0.335937"/><stop stop-opacity="1" stop-color="rgb(13.598633%, 24.299622%, 57.098389%)" offset="0.34375"/><stop stop-opacity="1" stop-color="rgb(13.50708%, 24.176025%, 56.884766%)" offset="0.351562"/><stop stop-opacity="1" stop-color="rgb(13.417053%, 24.053955%, 56.671143%)" offset="0.359375"/><stop stop-opacity="1" stop-color="rgb(13.3255%, 23.930359%, 56.45752%)" offset="0.367188"/><stop stop-opacity="1" stop-color="rgb(13.233948%, 23.808289%, 56.243896%)" offset="0.375"/><stop stop-opacity="1" stop-color="rgb(13.142395%, 23.686218%, 56.030273%)" offset="0.382812"/><stop stop-opacity="1" stop-color="rgb(13.052368%, 23.562622%, 55.81665%)" offset="0.390625"/><stop stop-opacity="1" stop-color="rgb(12.960815%, 23.440552%, 55.603027%)" offset="0.398437"/><stop stop-opacity="1" stop-color="rgb(12.869263%, 23.318481%, 55.387878%)" offset="0.40625"/><stop stop-opacity="1" stop-color="rgb(12.77771%, 23.194885%, 55.174255%)" offset="0.414062"/><stop stop-opacity="1" stop-color="rgb(12.687683%, 23.072815%, 54.960632%)" offset="0.421875"/><stop stop-opacity="1" stop-color="rgb(12.59613%, 22.949219%, 54.747009%)" offset="0.429687"/><stop stop-opacity="1" stop-color="rgb(12.504578%, 22.827148%, 54.533386%)" offset="0.4375"/><stop stop-opacity="1" stop-color="rgb(12.413025%, 22.705078%, 54.319763%)" offset="0.445312"/><stop stop-opacity="1" stop-color="rgb(12.322998%, 22.581482%, 54.10614%)" offset="0.453125"/><stop stop-opacity="1" stop-color="rgb(12.231445%, 22.459412%, 53.892517%)" offset="0.460937"/><stop stop-opacity="1" stop-color="rgb(12.139893%, 22.337341%, 53.677368%)" offset="0.46875"/><stop stop-opacity="1" stop-color="rgb(12.04834%, 22.213745%, 53.463745%)" offset="0.476562"/><stop stop-opacity="1" stop-color="rgb(11.958313%, 22.091675%, 53.250122%)" offset="0.484375"/><stop stop-opacity="1" stop-color="rgb(11.86676%, 21.969604%, 53.036499%)" offset="0.492187"/><stop stop-opacity="1" stop-color="rgb(11.775208%, 21.846008%, 52.822876%)" offset="0.5"/><stop stop-opacity="1" stop-color="rgb(11.683655%, 21.723938%, 52.609253%)" offset="0.507812"/><stop stop-opacity="1" stop-color="rgb(11.593628%, 21.600342%, 52.39563%)" offset="0.515625"/><stop stop-opacity="1" stop-color="rgb(11.502075%, 21.478271%, 52.182007%)" offset="0.523438"/><stop stop-opacity="1" stop-color="rgb(11.410522%, 21.356201%, 51.966858%)" offset="0.53125"/><stop stop-opacity="1" stop-color="rgb(11.31897%, 21.232605%, 51.753235%)" offset="0.539062"/><stop stop-opacity="1" stop-color="rgb(11.228943%, 21.110535%, 51.539612%)" offset="0.546875"/><stop stop-opacity="1" stop-color="rgb(11.13739%, 20.988464%, 51.325989%)" offset="0.554687"/><stop stop-opacity="1" stop-color="rgb(11.045837%, 20.864868%, 51.112366%)" offset="0.5625"/><stop stop-opacity="1" stop-color="rgb(10.954285%, 20.742798%, 50.898743%)" offset="0.570312"/><stop stop-opacity="1" stop-color="rgb(10.862732%, 20.620728%, 50.68512%)" offset="0.578125"/><stop stop-opacity="1" stop-color="rgb(10.772705%, 20.497131%, 50.471497%)" offset="0.585938"/><stop stop-opacity="1" stop-color="rgb(10.681152%, 20.375061%, 50.256348%)" offset="0.59375"/><stop stop-opacity="1" stop-color="rgb(10.5896%, 20.251465%, 50.042725%)" offset="0.601562"/><stop stop-opacity="1" stop-color="rgb(10.498047%, 20.129395%, 49.829102%)" offset="0.609375"/><stop stop-opacity="1" stop-color="rgb(10.40802%, 20.007324%, 49.615479%)" offset="0.617188"/><stop stop-opacity="1" stop-color="rgb(10.316467%, 19.883728%, 49.401855%)" offset="0.625"/><stop stop-opacity="1" stop-color="rgb(10.224915%, 19.761658%, 49.188232%)" offset="0.632812"/><stop stop-opacity="1" stop-color="rgb(10.133362%, 19.639587%, 48.974609%)" offset="0.640625"/><stop stop-opacity="1" stop-color="rgb(10.043335%, 19.515991%, 48.760986%)" offset="0.648437"/><stop stop-opacity="1" stop-color="rgb(9.951782%, 19.393921%, 48.545837%)" offset="0.65625"/><stop stop-opacity="1" stop-color="rgb(9.860229%, 19.271851%, 48.332214%)" offset="0.664062"/><stop stop-opacity="1" stop-color="rgb(9.768677%, 19.148254%, 48.118591%)" offset="0.671875"/><stop stop-opacity="1" stop-color="rgb(9.67865%, 19.026184%, 47.904968%)" offset="0.679688"/><stop stop-opacity="1" stop-color="rgb(9.587097%, 18.902588%, 47.691345%)" offset="0.6875"/><stop stop-opacity="1" stop-color="rgb(9.495544%, 18.780518%, 47.477722%)" offset="0.695312"/><stop stop-opacity="1" stop-color="rgb(9.403992%, 18.658447%, 47.264099%)" offset="0.703125"/><stop stop-opacity="1" stop-color="rgb(9.313965%, 18.534851%, 47.050476%)" offset="0.710938"/><stop stop-opacity="1" stop-color="rgb(9.222412%, 18.412781%, 46.835327%)" offset="0.71875"/><stop stop-opacity="1" stop-color="rgb(9.130859%, 18.29071%, 46.621704%)" offset="0.721003"/><stop stop-opacity="1" stop-color="rgb(9.085083%, 18.229675%, 46.514893%)" offset="0.726562"/><stop stop-opacity="1" stop-color="rgb(9.039307%, 18.167114%, 46.408081%)" offset="0.734375"/><stop stop-opacity="1" stop-color="rgb(8.94928%, 18.045044%, 46.194458%)" offset="0.742188"/><stop stop-opacity="1" stop-color="rgb(8.857727%, 17.922974%, 45.980835%)" offset="0.75"/><stop stop-opacity="1" stop-color="rgb(8.766174%, 17.799377%, 45.767212%)" offset="0.757812"/><stop stop-opacity="1" stop-color="rgb(8.674622%, 17.677307%, 45.553589%)" offset="0.765625"/><stop stop-opacity="1" stop-color="rgb(8.584595%, 17.553711%, 45.339966%)" offset="0.773437"/><stop stop-opacity="1" stop-color="rgb(8.493042%, 17.431641%, 45.124817%)" offset="0.78125"/><stop stop-opacity="1" stop-color="rgb(8.401489%, 17.30957%, 44.911194%)" offset="0.789062"/><stop stop-opacity="1" stop-color="rgb(8.309937%, 17.185974%, 44.697571%)" offset="0.796875"/><stop stop-opacity="1" stop-color="rgb(8.218384%, 17.063904%, 44.483948%)" offset="0.804688"/><stop stop-opacity="1" stop-color="rgb(8.128357%, 16.941833%, 44.270325%)" offset="0.8125"/><stop stop-opacity="1" stop-color="rgb(8.036804%, 16.818237%, 44.056702%)" offset="0.820312"/><stop stop-opacity="1" stop-color="rgb(7.945251%, 16.696167%, 43.843079%)" offset="0.828125"/><stop stop-opacity="1" stop-color="rgb(7.849121%, 16.566467%, 43.617249%)" offset="0.84375"/><stop stop-opacity="1" stop-color="rgb(7.798767%, 16.499329%, 43.499756%)" offset="0.875"/><stop stop-opacity="1" stop-color="rgb(7.798767%, 16.499329%, 43.499756%)" offset="1"/></linearGradient><clipPath id="572393f4bb"><path d="M 30 3 L 37.277344 3 L 37.277344 12.972656 L 30 12.972656 Z M 30 3 " clip-rule="nonzero"/></clipPath><clipPath id="0dec83e873"><path d="M 27.839844 2.8125 L 34 2.8125 L 34 12 L 27.839844 12 Z M 27.839844 2.8125 " clip-rule="nonzero"/></clipPath></defs><g clip-path="url(#94fb23f02b)"><g clip-path="url(#4193aa4e9d)"><path fill="url(#0bfc759211)" d="M 22.3125 1.777344 L 22.3125 27.183594 L 46.261719 27.183594 L 46.261719 1.777344 Z M 22.3125 1.777344 " fill-rule="nonzero"/></g></g><g fill="#142a6f" fill-opacity="1"><g transform="translate(48.207663, 16.727677)"><g><path d="M 8.84375 -9.046875 C 8.820312 -8.867188 8.734375 -8.78125 8.578125 -8.78125 L 3.84375 -8.78125 C 3.820312 -8.78125 3.800781 -8.769531 3.78125 -8.75 C 3.757812 -8.738281 3.75 -8.71875 3.75 -8.6875 L 3.453125 -6.375 C 3.453125 -6.3125 3.476562 -6.28125 3.53125 -6.28125 L 6.609375 -6.28125 C 6.785156 -6.28125 6.859375 -6.191406 6.828125 -6.015625 L 6.671875 -4.703125 C 6.640625 -4.535156 6.546875 -4.453125 6.390625 -4.453125 L 3.3125 -4.453125 C 3.25 -4.453125 3.21875 -4.421875 3.21875 -4.359375 L 2.71875 -0.265625 C 2.6875 -0.0859375 2.585938 0 2.421875 0 L 0.84375 0 C 0.6875 0 0.617188 -0.0859375 0.640625 -0.265625 L 1.875 -10.359375 C 1.894531 -10.535156 1.988281 -10.625 2.15625 -10.625 L 8.796875 -10.625 C 8.960938 -10.625 9.035156 -10.535156 9.015625 -10.359375 Z M 8.84375 -9.046875 "/></g></g></g><g fill="#142a6f" fill-opacity="1"><g transform="translate(56.442602, 16.727677)"><g><path d="M 8.859375 -9.046875 C 8.835938 -8.867188 8.75 -8.78125 8.59375 -8.78125 L 3.84375 -8.78125 C 3.820312 -8.78125 3.800781 -8.769531 3.78125 -8.75 C 3.757812 -8.738281 3.75 -8.71875 3.75 -8.6875 L 3.453125 -6.375 C 3.453125 -6.3125 3.476562 -6.28125 3.53125 -6.28125 L 6.609375 -6.28125 C 6.785156 -6.28125 6.859375 -6.191406 6.828125 -6.015625 L 6.671875 -4.703125 C 6.640625 -4.535156 6.546875 -4.453125 6.390625 -4.453125 L 3.3125 -4.453125 C 3.25 -4.453125 3.21875 -4.421875 3.21875 -4.359375 L 2.90625 -1.921875 C 2.90625 -1.859375 2.929688 -1.828125 2.984375 -1.828125 L 7.734375 -1.828125 C 7.898438 -1.828125 7.972656 -1.742188 7.953125 -1.578125 L 7.78125 -0.265625 C 7.757812 -0.0859375 7.671875 0 7.515625 0 L 0.84375 0 C 0.6875 0 0.617188 -0.0859375 0.640625 -0.265625 L 1.875 -10.359375 C 1.894531 -10.535156 1.988281 -10.625 2.15625 -10.625 L 8.8125 -10.625 C 8.976562 -10.625 9.050781 -10.535156 9.03125 -10.359375 Z M 8.859375 -9.046875 "/></g></g></g><g fill="#142a6f" fill-opacity="1"><g transform="translate(65.02635, 16.727677)"><g><path d="M 0.84375 0 C 0.6875 0 0.617188 -0.0859375 0.640625 -0.265625 L 1.875 -10.359375 C 1.894531 -10.535156 1.988281 -10.625 2.15625 -10.625 L 5.765625 -10.625 C 6.773438 -10.625 7.578125 -10.375 8.171875 -9.875 C 8.773438 -9.375 9.078125 -8.703125 9.078125 -7.859375 C 9.078125 -7.753906 9.066406 -7.601562 9.046875 -7.40625 L 8.53125 -3.21875 C 8.457031 -2.582031 8.238281 -2.019531 7.875 -1.53125 C 7.507812 -1.039062 7.03125 -0.660156 6.4375 -0.390625 C 5.84375 -0.128906 5.179688 0 4.453125 0 Z M 2.90625 -1.921875 C 2.90625 -1.859375 2.929688 -1.828125 2.984375 -1.828125 L 4.765625 -1.828125 C 5.222656 -1.828125 5.609375 -1.984375 5.921875 -2.296875 C 6.234375 -2.617188 6.425781 -3.039062 6.5 -3.5625 L 6.9375 -7.0625 C 6.945312 -7.125 6.953125 -7.21875 6.953125 -7.34375 C 6.953125 -7.789062 6.832031 -8.140625 6.59375 -8.390625 C 6.351562 -8.648438 6.019531 -8.78125 5.59375 -8.78125 L 3.84375 -8.78125 C 3.78125 -8.78125 3.75 -8.75 3.75 -8.6875 Z M 2.90625 -1.921875 "/></g></g></g><g fill="#142a6f" fill-opacity="1"><g transform="translate(74.110565, 16.727677)"><g><path d="M 8.859375 -9.046875 C 8.835938 -8.867188 8.75 -8.78125 8.59375 -8.78125 L 3.84375 -8.78125 C 3.820312 -8.78125 3.800781 -8.769531 3.78125 -8.75 C 3.757812 -8.738281 3.75 -8.71875 3.75 -8.6875 L 3.453125 -6.375 C 3.453125 -6.3125 3.476562 -6.28125 3.53125 -6.28125 L 6.609375 -6.28125 C 6.785156 -6.28125 6.859375 -6.191406 6.828125 -6.015625 L 6.671875 -4.703125 C 6.640625 -4.535156 6.546875 -4.453125 6.390625 -4.453125 L 3.3125 -4.453125 C 3.25 -4.453125 3.21875 -4.421875 3.21875 -4.359375 L 2.90625 -1.921875 C 2.90625 -1.859375 2.929688 -1.828125 2.984375 -1.828125 L 7.734375 -1.828125 C 7.898438 -1.828125 7.972656 -1.742188 7.953125 -1.578125 L 7.78125 -0.265625 C 7.757812 -0.0859375 7.671875 0 7.515625 0 L 0.84375 0 C 0.6875 0 0.617188 -0.0859375 0.640625 -0.265625 L 1.875 -10.359375 C 1.894531 -10.535156 1.988281 -10.625 2.15625 -10.625 L 8.8125 -10.625 C 8.976562 -10.625 9.050781 -10.535156 9.03125 -10.359375 Z M 8.859375 -9.046875 "/></g></g></g><g fill="#142a6f" fill-opacity="1"><g transform="translate(82.694313, 16.727677)"><g><path d="M 0.84375 0 C 0.6875 0 0.617188 -0.0859375 0.640625 -0.265625 L 1.875 -10.359375 C 1.894531 -10.535156 1.988281 -10.625 2.15625 -10.625 L 3.734375 -10.625 C 3.898438 -10.625 3.96875 -10.535156 3.9375 -10.359375 L 2.90625 -1.921875 C 2.90625 -1.859375 2.929688 -1.828125 2.984375 -1.828125 L 7.71875 -1.828125 C 7.882812 -1.828125 7.957031 -1.742188 7.9375 -1.578125 L 7.765625 -0.265625 C 7.742188 -0.0859375 7.65625 0 7.5 0 Z M 0.84375 0 "/></g></g></g><g fill="#142a6f" fill-opacity="1"><g transform="translate(91.111242, 16.727677)"><g><path d="M 8.859375 -9.046875 C 8.835938 -8.867188 8.75 -8.78125 8.59375 -8.78125 L 3.84375 -8.78125 C 3.820312 -8.78125 3.800781 -8.769531 3.78125 -8.75 C 3.757812 -8.738281 3.75 -8.71875 3.75 -8.6875 L 3.453125 -6.375 C 3.453125 -6.3125 3.476562 -6.28125 3.53125 -6.28125 L 6.609375 -6.28125 C 6.785156 -6.28125 6.859375 -6.191406 6.828125 -6.015625 L 6.671875 -4.703125 C 6.640625 -4.535156 6.546875 -4.453125 6.390625 -4.453125 L 3.3125 -4.453125 C 3.25 -4.453125 3.21875 -4.421875 3.21875 -4.359375 L 2.90625 -1.921875 C 2.90625 -1.859375 2.929688 -1.828125 2.984375 -1.828125 L 7.734375 -1.828125 C 7.898438 -1.828125 7.972656 -1.742188 7.953125 -1.578125 L 7.78125 -0.265625 C 7.757812 -0.0859375 7.671875 0 7.515625 0 L 0.84375 0 C 0.6875 0 0.617188 -0.0859375 0.640625 -0.265625 L 1.875 -10.359375 C 1.894531 -10.535156 1.988281 -10.625 2.15625 -10.625 L 8.8125 -10.625 C 8.976562 -10.625 9.050781 -10.535156 9.03125 -10.359375 Z M 8.859375 -9.046875 "/></g></g></g><g fill="#142a6f" fill-opacity="1"><g transform="translate(99.69499, 16.727677)"><g><path d="M 7.40625 -5.546875 C 7.375 -5.535156 7.359375 -5.519531 7.359375 -5.5 C 7.359375 -5.476562 7.367188 -5.457031 7.390625 -5.4375 C 8.140625 -5.019531 8.515625 -4.351562 8.515625 -3.4375 C 8.515625 -3.351562 8.503906 -3.195312 8.484375 -2.96875 C 8.359375 -1.988281 7.9375 -1.25 7.21875 -0.75 C 6.507812 -0.25 5.632812 0 4.59375 0 L 0.84375 0 C 0.6875 0 0.617188 -0.0859375 0.640625 -0.265625 L 1.875 -10.359375 C 1.894531 -10.535156 1.988281 -10.625 2.15625 -10.625 L 5.78125 -10.625 C 7.882812 -10.625 8.9375 -9.828125 8.9375 -8.234375 C 8.9375 -8.003906 8.925781 -7.828125 8.90625 -7.703125 C 8.789062 -6.679688 8.289062 -5.960938 7.40625 -5.546875 Z M 3.84375 -8.78125 C 3.78125 -8.78125 3.75 -8.75 3.75 -8.6875 L 3.453125 -6.359375 C 3.441406 -6.296875 3.46875 -6.265625 3.53125 -6.265625 L 5.25 -6.265625 C 5.707031 -6.265625 6.078125 -6.375 6.359375 -6.59375 C 6.640625 -6.8125 6.804688 -7.117188 6.859375 -7.515625 L 6.875 -7.6875 C 6.875 -8.03125 6.757812 -8.296875 6.53125 -8.484375 C 6.300781 -8.679688 5.972656 -8.78125 5.546875 -8.78125 Z M 4.828125 -1.84375 C 5.316406 -1.84375 5.707031 -1.984375 6 -2.265625 C 6.289062 -2.546875 6.4375 -2.925781 6.4375 -3.40625 C 6.4375 -3.757812 6.320312 -4.03125 6.09375 -4.21875 C 5.863281 -4.414062 5.539062 -4.515625 5.125 -4.515625 L 3.328125 -4.515625 C 3.273438 -4.515625 3.238281 -4.488281 3.21875 -4.4375 L 2.90625 -1.9375 C 2.90625 -1.875 2.929688 -1.84375 2.984375 -1.84375 Z M 4.828125 -1.84375 "/></g></g></g><g fill="#2a48a3" fill-opacity="1"><g transform="translate(72.577351, 24.38599)"><g><path d="M 0.546875 0 C 0.460938 0 0.421875 -0.0390625 0.421875 -0.125 L 0.421875 -4.75 C 0.421875 -4.832031 0.460938 -4.875 0.546875 -4.875 L 1.28125 -4.875 C 1.363281 -4.875 1.40625 -4.832031 1.40625 -4.75 L 1.40625 -0.125 C 1.40625 -0.0390625 1.363281 0 1.28125 0 Z M 0.546875 0 "/></g></g></g><g fill="#2a48a3" fill-opacity="1"><g transform="translate(74.404686, 24.38599)"><g><path d="M 2.21875 -3.625 C 2.59375 -3.625 2.894531 -3.507812 3.125 -3.28125 C 3.351562 -3.0625 3.46875 -2.753906 3.46875 -2.359375 L 3.46875 -0.125 C 3.46875 -0.0390625 3.425781 0 3.34375 0 L 2.59375 0 C 2.519531 0 2.484375 -0.0390625 2.484375 -0.125 L 2.484375 -2.15625 C 2.484375 -2.34375 2.429688 -2.492188 2.328125 -2.609375 C 2.222656 -2.722656 2.085938 -2.78125 1.921875 -2.78125 C 1.742188 -2.78125 1.601562 -2.722656 1.5 -2.609375 C 1.394531 -2.492188 1.34375 -2.34375 1.34375 -2.15625 L 1.34375 -0.125 C 1.34375 -0.0390625 1.300781 0 1.21875 0 L 0.484375 0 C 0.398438 0 0.359375 -0.0390625 0.359375 -0.125 L 0.359375 -3.453125 C 0.359375 -3.535156 0.398438 -3.578125 0.484375 -3.578125 L 1.21875 -3.578125 C 1.300781 -3.578125 1.34375 -3.535156 1.34375 -3.453125 L 1.34375 -3.265625 C 1.34375 -3.242188 1.347656 -3.226562 1.359375 -3.21875 C 1.367188 -3.21875 1.378906 -3.222656 1.390625 -3.234375 C 1.578125 -3.492188 1.851562 -3.625 2.21875 -3.625 Z M 2.21875 -3.625 "/></g></g></g><g fill="#2a48a3" fill-opacity="1"><g transform="translate(78.205269, 24.38599)"><g><path d="M 2.546875 -3.453125 C 2.546875 -3.535156 2.582031 -3.578125 2.65625 -3.578125 L 3.40625 -3.578125 C 3.488281 -3.578125 3.53125 -3.535156 3.53125 -3.453125 L 3.53125 -0.3125 C 3.53125 0.289062 3.351562 0.722656 3 0.984375 C 2.65625 1.242188 2.207031 1.375 1.65625 1.375 C 1.507812 1.375 1.335938 1.359375 1.140625 1.328125 C 1.066406 1.328125 1.03125 1.285156 1.03125 1.203125 L 1.0625 0.5625 C 1.0625 0.519531 1.070312 0.488281 1.09375 0.46875 C 1.125 0.445312 1.160156 0.441406 1.203125 0.453125 C 1.367188 0.484375 1.507812 0.5 1.625 0.5 C 1.914062 0.5 2.140625 0.429688 2.296875 0.296875 C 2.460938 0.171875 2.546875 -0.0351562 2.546875 -0.328125 C 2.546875 -0.335938 2.539062 -0.34375 2.53125 -0.34375 C 2.519531 -0.351562 2.507812 -0.347656 2.5 -0.328125 C 2.320312 -0.148438 2.066406 -0.0625 1.734375 -0.0625 C 1.429688 -0.0625 1.148438 -0.132812 0.890625 -0.28125 C 0.640625 -0.425781 0.460938 -0.660156 0.359375 -0.984375 C 0.285156 -1.191406 0.25 -1.46875 0.25 -1.8125 C 0.25 -2.164062 0.289062 -2.457031 0.375 -2.6875 C 0.476562 -2.96875 0.644531 -3.191406 0.875 -3.359375 C 1.101562 -3.535156 1.375 -3.625 1.6875 -3.625 C 2.03125 -3.625 2.300781 -3.519531 2.5 -3.3125 C 2.507812 -3.300781 2.519531 -3.296875 2.53125 -3.296875 C 2.539062 -3.304688 2.546875 -3.320312 2.546875 -3.34375 Z M 2.484375 -1.25 C 2.523438 -1.382812 2.546875 -1.570312 2.546875 -1.8125 C 2.546875 -1.957031 2.539062 -2.066406 2.53125 -2.140625 C 2.519531 -2.222656 2.503906 -2.300781 2.484375 -2.375 C 2.441406 -2.5 2.367188 -2.597656 2.265625 -2.671875 C 2.171875 -2.742188 2.050781 -2.78125 1.90625 -2.78125 C 1.769531 -2.78125 1.648438 -2.742188 1.546875 -2.671875 C 1.453125 -2.597656 1.382812 -2.5 1.34375 -2.375 C 1.28125 -2.226562 1.25 -2.039062 1.25 -1.8125 C 1.25 -1.550781 1.273438 -1.363281 1.328125 -1.25 C 1.367188 -1.125 1.441406 -1.019531 1.546875 -0.9375 C 1.648438 -0.863281 1.773438 -0.828125 1.921875 -0.828125 C 2.066406 -0.828125 2.1875 -0.863281 2.28125 -0.9375 C 2.382812 -1.019531 2.453125 -1.125 2.484375 -1.25 Z M 2.484375 -1.25 "/></g></g></g><g fill="#2a48a3" fill-opacity="1"><g transform="translate(82.068385, 24.38599)"><g><path d="M 2.09375 -0.765625 C 2.394531 -0.785156 2.625 -0.894531 2.78125 -1.09375 C 2.8125 -1.125 2.84375 -1.140625 2.875 -1.140625 C 2.90625 -1.140625 2.929688 -1.128906 2.953125 -1.109375 L 3.34375 -0.71875 C 3.375 -0.695312 3.390625 -0.671875 3.390625 -0.640625 C 3.390625 -0.609375 3.378906 -0.582031 3.359375 -0.5625 C 3.210938 -0.363281 3.019531 -0.207031 2.78125 -0.09375 C 2.539062 0.0078125 2.28125 0.0625 2 0.0625 C 1.570312 0.0625 1.21875 -0.046875 0.9375 -0.265625 C 0.65625 -0.484375 0.46875 -0.785156 0.375 -1.171875 C 0.3125 -1.367188 0.28125 -1.582031 0.28125 -1.8125 C 0.28125 -2.082031 0.304688 -2.3125 0.359375 -2.5 C 0.453125 -2.84375 0.640625 -3.117188 0.921875 -3.328125 C 1.203125 -3.535156 1.535156 -3.640625 1.921875 -3.640625 C 2.367188 -3.640625 2.726562 -3.503906 3 -3.234375 C 3.269531 -2.960938 3.441406 -2.582031 3.515625 -2.09375 C 3.535156 -1.945312 3.550781 -1.78125 3.5625 -1.59375 C 3.5625 -1.507812 3.519531 -1.46875 3.4375 -1.46875 L 1.3125 -1.46875 C 1.28125 -1.46875 1.265625 -1.457031 1.265625 -1.4375 C 1.273438 -1.332031 1.289062 -1.257812 1.3125 -1.21875 C 1.363281 -1.070312 1.457031 -0.957031 1.59375 -0.875 C 1.726562 -0.800781 1.894531 -0.765625 2.09375 -0.765625 Z M 1.90625 -2.78125 C 1.757812 -2.78125 1.632812 -2.742188 1.53125 -2.671875 C 1.4375 -2.609375 1.367188 -2.507812 1.328125 -2.375 C 1.304688 -2.289062 1.289062 -2.234375 1.28125 -2.203125 C 1.28125 -2.171875 1.296875 -2.15625 1.328125 -2.15625 L 2.5 -2.15625 C 2.519531 -2.15625 2.53125 -2.164062 2.53125 -2.1875 C 2.53125 -2.238281 2.523438 -2.289062 2.515625 -2.34375 C 2.472656 -2.476562 2.398438 -2.582031 2.296875 -2.65625 C 2.191406 -2.738281 2.0625 -2.78125 1.90625 -2.78125 Z M 1.90625 -2.78125 "/></g></g></g><g fill="#2a48a3" fill-opacity="1"><g transform="translate(85.868968, 24.38599)"><g><path d="M 2.21875 -3.625 C 2.59375 -3.625 2.894531 -3.507812 3.125 -3.28125 C 3.351562 -3.0625 3.46875 -2.753906 3.46875 -2.359375 L 3.46875 -0.125 C 3.46875 -0.0390625 3.425781 0 3.34375 0 L 2.59375 0 C 2.519531 0 2.484375 -0.0390625 2.484375 -0.125 L 2.484375 -2.15625 C 2.484375 -2.34375 2.429688 -2.492188 2.328125 -2.609375 C 2.222656 -2.722656 2.085938 -2.78125 1.921875 -2.78125 C 1.742188 -2.78125 1.601562 -2.722656 1.5 -2.609375 C 1.394531 -2.492188 1.34375 -2.34375 1.34375 -2.15625 L 1.34375 -0.125 C 1.34375 -0.0390625 1.300781 0 1.21875 0 L 0.484375 0 C 0.398438 0 0.359375 -0.0390625 0.359375 -0.125 L 0.359375 -3.453125 C 0.359375 -3.535156 0.398438 -3.578125 0.484375 -3.578125 L 1.21875 -3.578125 C 1.300781 -3.578125 1.34375 -3.535156 1.34375 -3.453125 L 1.34375 -3.265625 C 1.34375 -3.242188 1.347656 -3.226562 1.359375 -3.21875 C 1.367188 -3.21875 1.378906 -3.222656 1.390625 -3.234375 C 1.578125 -3.492188 1.851562 -3.625 2.21875 -3.625 Z M 2.21875 -3.625 "/></g></g></g><g fill="#2a48a3" fill-opacity="1"><g transform="translate(89.669551, 24.38599)"><g><path d="M 0.90625 -3.921875 C 0.726562 -3.921875 0.582031 -3.972656 0.46875 -4.078125 C 0.363281 -4.179688 0.3125 -4.320312 0.3125 -4.5 C 0.3125 -4.664062 0.363281 -4.800781 0.46875 -4.90625 C 0.582031 -5.019531 0.726562 -5.078125 0.90625 -5.078125 C 1.082031 -5.078125 1.222656 -5.023438 1.328125 -4.921875 C 1.441406 -4.816406 1.5 -4.675781 1.5 -4.5 C 1.5 -4.320312 1.441406 -4.179688 1.328125 -4.078125 C 1.222656 -3.972656 1.082031 -3.921875 0.90625 -3.921875 Z M 0.53125 0 C 0.457031 0 0.421875 -0.0390625 0.421875 -0.125 L 0.421875 -3.453125 C 0.421875 -3.535156 0.457031 -3.578125 0.53125 -3.578125 L 1.28125 -3.578125 C 1.351562 -3.578125 1.390625 -3.535156 1.390625 -3.453125 L 1.390625 -0.125 C 1.390625 -0.0390625 1.351562 0 1.28125 0 Z M 0.53125 0 "/></g></g></g><g fill="#2a48a3" fill-opacity="1"><g transform="translate(91.476046, 24.38599)"><g><path d="M 2.09375 -0.765625 C 2.394531 -0.785156 2.625 -0.894531 2.78125 -1.09375 C 2.8125 -1.125 2.84375 -1.140625 2.875 -1.140625 C 2.90625 -1.140625 2.929688 -1.128906 2.953125 -1.109375 L 3.34375 -0.71875 C 3.375 -0.695312 3.390625 -0.671875 3.390625 -0.640625 C 3.390625 -0.609375 3.378906 -0.582031 3.359375 -0.5625 C 3.210938 -0.363281 3.019531 -0.207031 2.78125 -0.09375 C 2.539062 0.0078125 2.28125 0.0625 2 0.0625 C 1.570312 0.0625 1.21875 -0.046875 0.9375 -0.265625 C 0.65625 -0.484375 0.46875 -0.785156 0.375 -1.171875 C 0.3125 -1.367188 0.28125 -1.582031 0.28125 -1.8125 C 0.28125 -2.082031 0.304688 -2.3125 0.359375 -2.5 C 0.453125 -2.84375 0.640625 -3.117188 0.921875 -3.328125 C 1.203125 -3.535156 1.535156 -3.640625 1.921875 -3.640625 C 2.367188 -3.640625 2.726562 -3.503906 3 -3.234375 C 3.269531 -2.960938 3.441406 -2.582031 3.515625 -2.09375 C 3.535156 -1.945312 3.550781 -1.78125 3.5625 -1.59375 C 3.5625 -1.507812 3.519531 -1.46875 3.4375 -1.46875 L 1.3125 -1.46875 C 1.28125 -1.46875 1.265625 -1.457031 1.265625 -1.4375 C 1.273438 -1.332031 1.289062 -1.257812 1.3125 -1.21875 C 1.363281 -1.070312 1.457031 -0.957031 1.59375 -0.875 C 1.726562 -0.800781 1.894531 -0.765625 2.09375 -0.765625 Z M 1.90625 -2.78125 C 1.757812 -2.78125 1.632812 -2.742188 1.53125 -2.671875 C 1.4375 -2.609375 1.367188 -2.507812 1.328125 -2.375 C 1.304688 -2.289062 1.289062 -2.234375 1.28125 -2.203125 C 1.28125 -2.171875 1.296875 -2.15625 1.328125 -2.15625 L 2.5 -2.15625 C 2.519531 -2.15625 2.53125 -2.164062 2.53125 -2.1875 C 2.53125 -2.238281 2.523438 -2.289062 2.515625 -2.34375 C 2.472656 -2.476562 2.398438 -2.582031 2.296875 -2.65625 C 2.191406 -2.738281 2.0625 -2.78125 1.90625 -2.78125 Z M 1.90625 -2.78125 "/></g></g></g><g fill="#2a48a3" fill-opacity="1"><g transform="translate(95.276629, 24.38599)"><g><path d="M 2.140625 -3.625 C 2.285156 -3.625 2.410156 -3.597656 2.515625 -3.546875 C 2.566406 -3.515625 2.585938 -3.460938 2.578125 -3.390625 L 2.4375 -2.65625 C 2.4375 -2.613281 2.425781 -2.585938 2.40625 -2.578125 C 2.382812 -2.578125 2.347656 -2.582031 2.296875 -2.59375 C 2.222656 -2.601562 2.15625 -2.609375 2.09375 -2.609375 C 2.0625 -2.609375 2.007812 -2.601562 1.9375 -2.59375 C 1.769531 -2.582031 1.628906 -2.519531 1.515625 -2.40625 C 1.398438 -2.300781 1.34375 -2.160156 1.34375 -1.984375 L 1.34375 -0.125 C 1.34375 -0.0390625 1.300781 0 1.21875 0 L 0.484375 0 C 0.398438 0 0.359375 -0.0390625 0.359375 -0.125 L 0.359375 -3.453125 C 0.359375 -3.535156 0.398438 -3.578125 0.484375 -3.578125 L 1.21875 -3.578125 C 1.300781 -3.578125 1.34375 -3.535156 1.34375 -3.453125 L 1.34375 -3.234375 C 1.34375 -3.222656 1.347656 -3.210938 1.359375 -3.203125 C 1.367188 -3.203125 1.378906 -3.207031 1.390625 -3.21875 C 1.578125 -3.488281 1.828125 -3.625 2.140625 -3.625 Z M 2.140625 -3.625 "/></g></g></g><g fill="#2a48a3" fill-opacity="1"><g transform="translate(97.937731, 24.38599)"><g><path d="M 0.453125 0 C 0.378906 0 0.34375 -0.0390625 0.34375 -0.125 L 0.34375 -3.453125 C 0.34375 -3.535156 0.378906 -3.578125 0.453125 -3.578125 L 1.203125 -3.578125 C 1.285156 -3.578125 1.328125 -3.535156 1.328125 -3.453125 L 1.328125 -0.125 C 1.328125 -0.0390625 1.285156 0 1.203125 0 Z M 0.46875 -4.0625 C 0.40625 -4.0625 0.375 -4.085938 0.375 -4.140625 C 0.375 -4.171875 0.378906 -4.191406 0.390625 -4.203125 L 0.734375 -4.84375 C 0.753906 -4.894531 0.800781 -4.921875 0.875 -4.921875 L 1.578125 -4.921875 C 1.609375 -4.921875 1.628906 -4.914062 1.640625 -4.90625 C 1.660156 -4.894531 1.671875 -4.875 1.671875 -4.84375 C 1.671875 -4.820312 1.660156 -4.800781 1.640625 -4.78125 L 1.203125 -4.140625 C 1.160156 -4.085938 1.113281 -4.0625 1.0625 -4.0625 Z M 0.46875 -4.0625 "/></g></g></g><g fill="#2a48a3" fill-opacity="1"><g transform="translate(99.612209, 24.38599)"><g><path d="M 1.796875 -3.625 C 2.097656 -3.625 2.363281 -3.570312 2.59375 -3.46875 C 2.832031 -3.363281 3.015625 -3.222656 3.140625 -3.046875 C 3.273438 -2.867188 3.34375 -2.664062 3.34375 -2.4375 L 3.34375 -0.125 C 3.34375 -0.0390625 3.304688 0 3.234375 0 L 2.484375 0 C 2.410156 0 2.375 -0.0390625 2.375 -0.125 L 2.375 -0.28125 C 2.375 -0.300781 2.367188 -0.3125 2.359375 -0.3125 C 2.347656 -0.3125 2.335938 -0.304688 2.328125 -0.296875 C 2.109375 -0.0546875 1.789062 0.0625 1.375 0.0625 C 1.007812 0.0625 0.71875 -0.0234375 0.5 -0.203125 C 0.289062 -0.378906 0.1875 -0.640625 0.1875 -0.984375 C 0.1875 -1.335938 0.3125 -1.613281 0.5625 -1.8125 C 0.8125 -2.007812 1.164062 -2.109375 1.625 -2.109375 L 2.328125 -2.109375 C 2.359375 -2.109375 2.375 -2.125 2.375 -2.15625 L 2.375 -2.296875 C 2.375 -2.453125 2.328125 -2.570312 2.234375 -2.65625 C 2.140625 -2.738281 2 -2.78125 1.8125 -2.78125 C 1.675781 -2.78125 1.5625 -2.757812 1.46875 -2.71875 C 1.375 -2.675781 1.3125 -2.613281 1.28125 -2.53125 C 1.257812 -2.457031 1.210938 -2.425781 1.140625 -2.4375 L 0.375 -2.53125 C 0.332031 -2.53125 0.300781 -2.539062 0.28125 -2.5625 C 0.257812 -2.582031 0.253906 -2.601562 0.265625 -2.625 C 0.285156 -2.8125 0.363281 -2.984375 0.5 -3.140625 C 0.632812 -3.296875 0.816406 -3.414062 1.046875 -3.5 C 1.273438 -3.582031 1.523438 -3.625 1.796875 -3.625 Z M 1.65625 -0.671875 C 1.851562 -0.671875 2.019531 -0.722656 2.15625 -0.828125 C 2.300781 -0.941406 2.375 -1.082031 2.375 -1.25 L 2.375 -1.484375 C 2.375 -1.515625 2.359375 -1.53125 2.328125 -1.53125 L 1.828125 -1.53125 C 1.617188 -1.53125 1.453125 -1.488281 1.328125 -1.40625 C 1.210938 -1.332031 1.15625 -1.222656 1.15625 -1.078125 C 1.15625 -0.953125 1.203125 -0.851562 1.296875 -0.78125 C 1.390625 -0.707031 1.507812 -0.671875 1.65625 -0.671875 Z M 1.65625 -0.671875 "/></g></g></g><path fill="#ffffff" d="M 31.101562 4.953125 C 29.804688 4.71875 28.777344 4.964844 28.367188 5.675781 C 28.0625 6.203125 28.148438 6.90625 28.578125 7.65625 C 28.621094 7.734375 28.683594 7.75 28.761719 7.707031 C 28.835938 7.660156 28.855469 7.601562 28.808594 7.523438 C 28.421875 6.847656 28.347656 6.242188 28.597656 5.808594 C 28.9375 5.21875 29.855469 5 31.054688 5.21875 C 31.140625 5.234375 31.195312 5.195312 31.210938 5.109375 C 31.226562 5.023438 31.191406 4.972656 31.101562 4.953125 Z M 29.253906 8.566406 C 29.78125 9.144531 30.460938 9.683594 31.242188 10.132812 C 33.128906 11.222656 35.132812 11.515625 36.121094 10.839844 C 36.195312 10.789062 36.207031 10.730469 36.15625 10.65625 C 36.105469 10.582031 36.042969 10.570312 35.972656 10.621094 C 35.085938 11.222656 33.179688 10.949219 31.371094 9.90625 C 30.617188 9.46875 29.957031 8.945312 29.449219 8.386719 C 29.390625 8.324219 29.328125 8.320312 29.261719 8.378906 C 29.195312 8.4375 29.191406 8.5 29.253906 8.566406 Z M 35.808594 8.40625 C 36.65625 7.402344 36.953125 6.390625 36.546875 5.683594 C 36.246094 5.160156 35.609375 4.886719 34.765625 4.875 C 34.675781 4.875 34.632812 4.917969 34.628906 5.007812 C 34.628906 5.09375 34.671875 5.140625 34.761719 5.140625 C 35.523438 5.152344 36.070312 5.390625 36.316406 5.816406 C 36.65625 6.402344 36.390625 7.304688 35.601562 8.234375 C 35.546875 8.300781 35.550781 8.363281 35.617188 8.421875 C 35.6875 8.480469 35.75 8.472656 35.808594 8.40625 Z M 33.621094 5 C 32.851562 5.164062 32.03125 5.484375 31.246094 5.941406 C 29.300781 7.0625 28.03125 8.722656 28.207031 9.921875 C 28.21875 10.007812 28.269531 10.046875 28.359375 10.035156 C 28.445312 10.019531 28.484375 9.96875 28.472656 9.882812 C 28.3125 8.816406 29.515625 7.246094 31.378906 6.167969 C 32.140625 5.730469 32.933594 5.417969 33.675781 5.257812 C 33.761719 5.238281 33.796875 5.1875 33.777344 5.097656 C 33.761719 5.011719 33.707031 4.980469 33.621094 4.996094 Z M 33.621094 5 " fill-opacity="1" fill-rule="evenodd"/><g clip-path="url(#572393f4bb)"><path fill="#ffffff" d="M 30.46875 10.753906 C 30.914062 11.996094 31.640625 12.761719 32.460938 12.761719 C 33.054688 12.761719 33.609375 12.355469 34.039062 11.636719 C 34.085938 11.5625 34.070312 11.5 33.992188 11.453125 C 33.917969 11.410156 33.855469 11.425781 33.8125 11.5 C 33.421875 12.144531 32.949219 12.492188 32.460938 12.492188 C 31.78125 12.492188 31.128906 11.808594 30.71875 10.664062 C 30.6875 10.582031 30.632812 10.554688 30.550781 10.582031 C 30.464844 10.613281 30.4375 10.671875 30.46875 10.753906 Z M 34.53125 10.511719 C 34.761719 9.773438 34.886719 8.925781 34.886719 8.042969 C 34.886719 5.835938 34.113281 3.929688 33.011719 3.441406 C 32.929688 3.40625 32.871094 3.429688 32.835938 3.511719 C 32.800781 3.589844 32.824219 3.648438 32.90625 3.6875 C 33.886719 4.121094 34.617188 5.929688 34.617188 8.042969 C 34.617188 8.898438 34.5 9.722656 34.277344 10.429688 C 34.25 10.515625 34.28125 10.570312 34.363281 10.597656 C 34.449219 10.625 34.503906 10.597656 34.53125 10.511719 Z M 37.039062 10.378906 C 37.039062 10.027344 36.753906 9.742188 36.402344 9.742188 C 36.050781 9.742188 35.765625 10.027344 35.765625 10.378906 C 35.765625 10.734375 36.050781 11.019531 36.402344 11.019531 C 36.753906 11.019531 37.039062 10.734375 37.039062 10.378906 Z M 36.773438 10.378906 C 36.773438 10.484375 36.738281 10.570312 36.664062 10.644531 C 36.59375 10.714844 36.507812 10.75 36.402344 10.75 C 36.300781 10.75 36.214844 10.714844 36.140625 10.644531 C 36.070312 10.570312 36.03125 10.484375 36.03125 10.378906 C 36.03125 10.277344 36.070312 10.191406 36.140625 10.117188 C 36.214844 10.046875 36.300781 10.007812 36.402344 10.007812 C 36.507812 10.007812 36.59375 10.046875 36.664062 10.117188 C 36.738281 10.191406 36.773438 10.277344 36.773438 10.378906 Z M 36.773438 10.378906 " fill-opacity="1" fill-rule="evenodd"/></g><g clip-path="url(#0dec83e873)"><path fill="#ffffff" d="M 28.507812 11.019531 C 28.859375 11.019531 29.144531 10.734375 29.144531 10.378906 C 29.144531 10.027344 28.859375 9.742188 28.507812 9.742188 C 28.328125 9.742188 28.179688 9.804688 28.054688 9.929688 C 27.929688 10.054688 27.867188 10.203125 27.867188 10.378906 C 27.867188 10.554688 27.929688 10.707031 28.054688 10.832031 C 28.179688 10.957031 28.332031 11.019531 28.507812 11.019531 Z M 28.507812 10.75 C 28.402344 10.75 28.316406 10.714844 28.242188 10.644531 C 28.171875 10.570312 28.136719 10.484375 28.136719 10.378906 C 28.136719 10.277344 28.171875 10.191406 28.242188 10.117188 C 28.316406 10.046875 28.402344 10.007812 28.507812 10.007812 C 28.609375 10.007812 28.695312 10.046875 28.769531 10.117188 C 28.839844 10.191406 28.878906 10.277344 28.878906 10.378906 C 28.878906 10.484375 28.839844 10.570312 28.769531 10.644531 C 28.695312 10.714844 28.609375 10.75 28.507812 10.75 Z M 32.460938 4.089844 C 32.8125 4.089844 33.097656 3.804688 33.097656 3.453125 C 33.097656 3.101562 32.8125 2.816406 32.460938 2.816406 C 32.105469 2.816406 31.820312 3.101562 31.820312 3.457031 C 31.820312 3.808594 32.105469 4.089844 32.460938 4.089844 Z M 32.460938 3.824219 C 32.355469 3.824219 32.269531 3.789062 32.195312 3.714844 C 32.125 3.644531 32.089844 3.554688 32.089844 3.453125 C 32.089844 3.351562 32.125 3.265625 32.195312 3.191406 C 32.269531 3.121094 32.355469 3.082031 32.460938 3.082031 C 32.5625 3.082031 32.648438 3.121094 32.722656 3.191406 C 32.792969 3.265625 32.832031 3.351562 32.832031 3.453125 C 32.832031 3.554688 32.792969 3.644531 32.722656 3.714844 C 32.648438 3.789062 32.5625 3.824219 32.460938 3.824219 Z M 32.558594 8.492188 C 32.433594 8.519531 32.316406 8.5 32.207031 8.429688 C 32.101562 8.363281 32.03125 8.265625 32.003906 8.140625 C 31.976562 8.015625 32 7.898438 32.070312 7.789062 C 32.140625 7.683594 32.238281 7.617188 32.363281 7.589844 C 32.488281 7.5625 32.601562 7.582031 32.710938 7.652344 C 32.820312 7.722656 32.886719 7.816406 32.914062 7.941406 C 32.941406 8.070312 32.917969 8.183594 32.847656 8.292969 C 32.78125 8.398438 32.683594 8.464844 32.558594 8.492188 Z M 32.558594 8.492188 " fill-opacity="1" fill-rule="evenodd"/></g></svg>