<svg xmlns="http://www.w3.org/2000/svg" width="72.75" height="72.747" viewBox="0 0 72.75 72.747">
  <g id="Whatsapp-Icon-SVG-pdlkgd" transform="translate(-1519 -2710.148)">
    <path id="Path_136707" data-name="Path 136707" d="M36.375,72.747a36.187,36.187,0,0,1-18.143-4.884L4.061,72.747,6.971,57.74A35.974,35.974,0,0,1,0,36.375,36.375,36.375,0,1,1,36.375,72.747" transform="translate(1519 2710.148)" fill="#29a71a"/>
    <path id="Path_136708" data-name="Path 136708" d="M36.375,72.747a36.2,36.2,0,0,1-18.143-4.884L4.061,72.747,6.974,57.74A35.956,35.956,0,0,1,0,36.375,36.375,36.375,0,1,1,36.375,72.747M18.887,61.915l1.1.686a31.012,31.012,0,1,0-7.991-7.2l.759.972-1.592,8.2Z" transform="translate(1519 2710.148)" fill="#fff"/>
    <path id="Path_136709" data-name="Path 136709" d="M6.421,9.827S8.553,6.1,10.294,5.884s3.981-.216,4.585.921,3.3,7.747,3.3,7.747a2.6,2.6,0,0,1-.251,2.24,22.113,22.113,0,0,1-2.307,2.7,1.978,1.978,0,0,0,0,2.348,42.622,42.622,0,0,0,5.116,6.275c2.847,2.85,8.315,4.881,8.315,4.881a1.668,1.668,0,0,0,1.277-.391c.5-.5,3.2-3.873,3.2-3.873a1.9,1.9,0,0,1,2.313-.461c1.433.658,7.667,3.765,7.667,3.765a1.35,1.35,0,0,1,.734,1.366c0,1.1-.448,3.8-1.357,4.709S39.311,41.83,35.31,41.83s-13.539-3.257-18.62-8.338S7.095,23.258,6.03,18.569s-.925-6.809.391-8.741" transform="translate(1530.589 2722.719)" fill="#fff"/>
  </g>
</svg>
